# xmcd
#
# Track frame offsets:
# 150
# 19567
# 34489
# 46539
# 61293
# 72479
# 96173
# 111331
# 134809
# 145850
# 169918
# 190528
# 205974
# 219876
# 235582
# 254952
# 271828
# 295169
# 309506
# 324252
# 339647
#
# Disc length: 4687 seconds
#
# Revision: 0
# Processed by: cddbd v1.5.1PL0 Copyright (c) Steve Scherf et al.
# Submitted via: Audion 3.0.2 (http://www.panic.com/audion/)
#
DISCID=3e124d15
DTITLE=uzt - nght
DYEAR=1900
DGENRE=
TTITLE0=h
TTITLE1=hh
TTITLE2=äl,
TTITLE3=äöl,m
TTITLE4=nnlö
TTITLE5=nl
TTITLE6=nl
TTITLE7=ön
TTITLE8=jhgvb
TTITLE9=lkj
TTITLE10=hbk
TTITLE11=huig
TTITLE12=ggui
TTITLE13=giuikh
TTITLE14=hiu
TTITLE15=guig
TTITLE16=g
TTITLE17=igh
TTITLE18=iugh
TTITLE19=jkhg
TTITLE20=kih
EXTD=
EXTT0=
EXTT1=
EXTT2=
EXTT3=
EXTT4=
EXTT5=
EXTT6=
EXTT7=
EXTT8=
EXTT9=
EXTT10=
EXTT11=
EXTT12=
EXTT13=
EXTT14=
EXTT15=
EXTT16=
EXTT17=
EXTT18=
EXTT19=
EXTT20=
PLAYORDER=
